<mxfile host="app.diagrams.net" modified="2024-06-05T05:55:09.337Z" agent="Mozilla/5.0 (Macintosh; Intel Mac OS X 10_15_7) AppleWebKit/605.1.15 (KHTML, like Gecko) Version/17.5 Safari/605.1.15" etag="qOn53sSzroOjez0wJQEd" version="24.4.0" type="github">
  <diagram name="Page-1" id="ubM7CDHuB8m3kzV2Bm6y">
    <mxGraphModel dx="1824" dy="768" grid="1" gridSize="10" guides="1" tooltips="1" connect="1" arrows="1" fold="1" page="1" pageScale="1" pageWidth="827" pageHeight="1169" math="0" shadow="0">
      <root>
        <mxCell id="0" />
        <mxCell id="1" parent="0" />
        <mxCell id="MaU48TReLEHeVx3_mteO-8" value="&lt;i&gt;Shape&lt;/i&gt;" style="rounded=0;whiteSpace=wrap;html=1;" vertex="1" parent="1">
          <mxGeometry x="350" y="230" width="310" height="60" as="geometry" />
        </mxCell>
        <mxCell id="MaU48TReLEHeVx3_mteO-9" value="# DEFAULT_X_POS: int&lt;div&gt;# DEFAULT_Y_POS: int&lt;/div&gt;&lt;div&gt;# DEFAULT_DELTA_X: int&lt;div&gt;# DEFAULT_DELTA_Y: int&lt;/div&gt;&lt;/div&gt;&lt;div&gt;# DEFAULT_HEIGHT: int&lt;/div&gt;&lt;div&gt;# DEFAULT_WIDTH: int&lt;/div&gt;&lt;div&gt;# x: int&lt;/div&gt;&lt;div&gt;# y: int&lt;/div&gt;&lt;div&gt;# deltaX: int&lt;/div&gt;&lt;div&gt;# deltaY: int&lt;/div&gt;&lt;div&gt;# width: int&lt;/div&gt;&lt;div&gt;# height: int&lt;/div&gt;" style="rounded=0;whiteSpace=wrap;html=1;" vertex="1" parent="1">
          <mxGeometry x="350" y="290" width="310" height="200" as="geometry" />
        </mxCell>
        <mxCell id="MaU48TReLEHeVx3_mteO-10" value="&lt;div&gt;&lt;i&gt;+ paint(painter: Painter): void&lt;/i&gt;&lt;/div&gt;+ move(width: int, height: int): void&lt;div&gt;+ toString(): String&lt;/div&gt;" style="rounded=0;whiteSpace=wrap;html=1;" vertex="1" parent="1">
          <mxGeometry x="350" y="490" width="310" height="110" as="geometry" />
        </mxCell>
      </root>
    </mxGraphModel>
  </diagram>
</mxfile>
